<svg width="374" height="303" viewBox="0 0 374 303" fill="none" xmlns="http://www.w3.org/2000/svg">
<mask id="mask0_224_1550" style="mask-type:alpha" maskUnits="userSpaceOnUse" x="0" y="-231" width="375" height="534">
<rect x="375" y="303" width="375" height="534" transform="rotate(180 375 303)" fill="#13A382"/>
</mask>
<g mask="url(#mask0_224_1550)">
<rect opacity="0.15" width="327.613" height="327.613" rx="16" transform="matrix(-0.703446 0.710748 -0.703446 -0.710748 475.26 222.167)" fill="url(#paint0_linear_224_1550)"/>
<rect opacity="0.15" width="327.613" height="327.613" rx="16" transform="matrix(-0.703446 0.710748 -0.703446 -0.710748 572.03 240.461)" fill="url(#paint1_linear_224_1550)"/>
<rect opacity="0.15" width="327.613" height="327.613" rx="16" transform="matrix(-0.703446 0.710748 -0.703446 -0.710748 309.688 -129.337)" fill="url(#paint2_linear_224_1550)"/>
<rect opacity="0.15" width="327.613" height="327.613" rx="16" transform="matrix(-0.703446 0.710748 -0.703446 -0.710748 212.917 -147.632)" fill="url(#paint3_linear_224_1550)"/>
</g>
<defs>
<linearGradient id="paint0_linear_224_1550" x1="163.806" y1="0" x2="163.806" y2="327.613" gradientUnits="userSpaceOnUse">
<stop stop-color="#970FF6" stop-opacity="0"/>
<stop offset="1" stop-color="#970FF6" stop-opacity="0.3"/>
</linearGradient>
<linearGradient id="paint1_linear_224_1550" x1="163.806" y1="2.48386e-07" x2="172.141" y2="343.376" gradientUnits="userSpaceOnUse">
<stop stop-color="#970FF6" stop-opacity="0"/>
<stop offset="1" stop-color="#970FF6" stop-opacity="0.4"/>
</linearGradient>
<linearGradient id="paint2_linear_224_1550" x1="163.806" y1="0" x2="163.806" y2="327.613" gradientUnits="userSpaceOnUse">
<stop stop-color="#970FF6" stop-opacity="0.3"/>
<stop offset="1" stop-color="#970FF6" stop-opacity="0"/>
</linearGradient>
<linearGradient id="paint3_linear_224_1550" x1="163.806" y1="0" x2="163.806" y2="327.613" gradientUnits="userSpaceOnUse">
<stop stop-color="#970FF6" stop-opacity="0.3"/>
<stop offset="1" stop-color="#970FF6"/>
</linearGradient>
</defs>
</svg>
